<?xml version="1.0" encoding="UTF-8"?>
<svg version="1.1" xmlns="http://www.w3.org/2000/svg" width="434" height="159">
<path d="M0 0 C143.22 0 286.44 0 434 0 C434 52.47 434 104.94 434 159 C290.78 159 147.56 159 0 159 C0 106.53 0 54.06 0 0 Z " fill="#FDFDFD" transform="translate(0,0)"/>
<path d="M0 0 C1.85259578 1.38544267 3.6645107 2.82654192 5.4375 4.3125 C6.24815918 4.98949951 6.24815918 4.98949951 7.07519531 5.68017578 C8.7783617 7.11986087 10.45715045 8.58208261 12.125 10.0625 C12.64328369 10.52229248 13.16156738 10.98208496 13.69555664 11.45581055 C16.31337293 13.89180324 18.0713211 15.66774259 18.4375 19.3125 C17.91542969 19.70179687 17.39335937 20.09109375 16.85546875 20.4921875 C10.37030406 25.42136696 4.40069592 30.77285818 -1.5625 36.3125 C-4.63984984 34.93650437 -6.76303841 33.32645144 -9.1875 31 C-19.70052065 21.60288657 -31.92974952 19.38319937 -45.57275391 20.1171875 C-50.0498168 20.5566538 -53.69447369 22.10318248 -57.5625 24.3125 C-58.71105469 24.94865234 -58.71105469 24.94865234 -59.8828125 25.59765625 C-69.77432233 31.6163885 -75.46701352 39.20722366 -78.5625 50.3125 C-78.75328125 50.93511719 -78.9440625 51.55773437 -79.140625 52.19921875 C-81.51151202 64.07560649 -79.15181864 75.81677376 -72.875 86.0625 C-67.62112021 93.35440872 -60.93072463 99.00007775 -52.5625 102.3125 C-51.53125 102.725 -50.5 103.1375 -49.4375 103.5625 C-35.57243664 106.24606065 -23.25367042 104.10075338 -11.5625 96.3125 C-9.03757081 94.12889572 -6.74817292 91.83385647 -4.5625 89.3125 C-1.02929901 90.83599033 1.38958388 92.9427951 4.1875 95.5625 C8.41657897 99.44647608 12.7628014 102.98275658 17.4375 106.3125 C12.46745906 117.57116417 0.15555511 124.06937709 -10.6953125 128.62890625 C-13.30242062 129.59147614 -15.91263388 130.47613601 -18.5625 131.3125 C-19.4810376 131.65112061 -20.3995752 131.98974121 -21.34594727 132.33862305 C-36.98724643 137.07434543 -55.49760955 133.73725773 -69.7734375 126.73828125 C-76.93211153 122.87043344 -82.8117076 118.03405108 -88.5625 112.3125 C-89.26117188 111.64863281 -89.95984375 110.98476562 -90.6796875 110.30078125 C-103.34734102 97.36203009 -108.73806469 79.22676033 -108.75 61.5625 C-108.76224609 60.6240625 -108.77449219 59.685625 -108.78710938 58.71875 C-108.8251952 40.33599118 -101.49960111 24.03786813 -88.97265625 10.6953125 C-65.80272697 -12.21174886 -28.1295952 -17.74103208 0 0 Z " fill="#0782D9" transform="translate(115.5625,22.6875)"/>
<path d="M0 0 C2.81876899 1.84027912 5.44789747 3.80621559 8 6 C6.63629701 8.99220268 5.05091917 11.29026529 2.875 13.75 C2.33617187 14.36359375 1.79734375 14.9771875 1.2421875 15.609375 C0.83226562 16.06828125 0.42234375 16.5271875 0 17 C-1.96093574 16.04533391 -3.8663967 15.08319842 -5.71875 13.9296875 C-12.19999602 10.09210762 -19.07411615 9.75617314 -26.3359375 11.58984375 C-32.14797876 14.00596052 -35.11371569 18.57698138 -38 24 C-40.06626754 30.19880262 -39.4693063 36.25677247 -36.90234375 42.21875 C-34.41708732 47.12471074 -31.35672737 50.00671976 -26.40625 52.26953125 C-20.13128063 54.17443267 -13.43354768 54.05464338 -7.5 51.1875 C-4.86204007 49.64319429 -2.35109648 47.95924706 0 46 C1.15498897 47.07356677 2.29867867 48.15929788 3.4375 49.25 C4.07558594 49.85328125 4.71367187 50.4565625 5.37109375 51.078125 C7.08516306 53.10048016 7.59358878 54.41270605 8 57 C-1.95652205 65.24065884 -10.30513898 68.57764763 -23.4140625 68.47265625 C-31.84138245 67.36186571 -40.9533505 62.49755222 -46.53515625 56.03515625 C-54.11362371 45.50613879 -55.64732602 35.70537633 -54 23 C-53.12179655 19.58476438 -51.93230549 16.93200521 -50 14 C-49.4225 12.96875 -48.845 11.9375 -48.25 10.875 C-36.49827978 -4.14108694 -17.23413965 -9.05615618 0 0 Z " fill="#0A2433" transform="translate(213,53)"/>
<path d="M0 0 C4.62 0 9.24 0 14 0 C14.33 7.59 14.66 15.18 15 23 C16.65 21.68 18.3 20.36 20 19 C25.4753568 17.17488107 30.87712063 17.17282928 36.1875 19.5625 C40.62352041 22.05554347 45.05476864 25.86187385 46.5634613 30.8706665 C47.28223 34.37665181 47.12097741 37.9207202 47.09765625 41.484375 C47.0962413 42.29996887 47.09482635 43.11556274 47.09336853 43.95587158 C47.08778303 46.55395212 47.07523321 49.15194563 47.0625 51.75 C47.05748312 53.51432167 47.05292054 55.27864469 47.04882812 57.04296875 C47.03781835 61.36201256 47.02056369 65.68099154 47 70 C42.71 70 38.42 70 34 70 C33.98541748 69.05680908 33.97083496 68.11361816 33.95581055 67.1418457 C33.89460394 63.62841339 33.82042492 60.11574554 33.73754883 56.6027832 C33.70438084 55.08498379 33.67632368 53.56706344 33.65356445 52.04907227 C33.61986722 49.86161981 33.56754796 47.67526736 33.51171875 45.48828125 C33.48553467 44.17384033 33.45935059 42.85939941 33.43237305 41.50512695 C32.97925367 37.83181535 32.28220145 35.88733318 30 33 C26.37296974 31.79098991 22.75982637 31.21339525 19 32 C15.79453201 34.35886782 15.06314922 35.58642342 14.45410156 39.57519531 C14.41302981 40.99240141 14.39303414 42.41032592 14.390625 43.828125 C14.37408875 44.57713074 14.35755249 45.32613647 14.34051514 46.09783936 C14.2920649 48.48197654 14.27067228 50.86547611 14.25 53.25 C14.2218376 54.86982369 14.19190978 56.48961772 14.16015625 58.109375 C14.08630756 62.07286414 14.03671543 66.03599998 14 70 C9.38 70 4.76 70 0 70 C0 46.9 0 23.8 0 0 Z " fill="#0A2333" transform="translate(387,49)"/>
<path d="M0 0 C5.13883957 3.89932048 7.69369028 8.67319861 9.2421875 14.8671875 C9.2421875 18.4971875 9.2421875 22.1271875 9.2421875 25.8671875 C-2.9678125 25.8671875 -15.1778125 25.8671875 -27.7578125 25.8671875 C-24.70995663 33.49728978 -24.70995663 33.49728978 -21.0078125 35.8671875 C-17.10293816 37.0686873 -13.79992949 37.63518973 -9.7578125 36.8671875 C-6.53952146 34.94425232 -6.53952146 34.94425232 -3.7578125 32.8671875 C0.2421875 32.8671875 0.2421875 32.8671875 2.9921875 35.3671875 C3.7346875 36.1921875 4.4771875 37.0171875 5.2421875 37.8671875 C3.50946164 42.27776242 0.45216244 44.40085342 -3.40625 46.9609375 C-9.6682005 49.37418088 -18.90786863 48.81547751 -25.40625 47.21484375 C-27.43706222 46.2797069 -29.01878981 45.26922254 -30.7578125 43.8671875 C-31.37914062 43.38121094 -32.00046875 42.89523438 -32.640625 42.39453125 C-38.35933191 37.33383455 -41.11882209 31.43054354 -42.171875 23.91015625 C-42.58161634 15.51045873 -40.48414053 9.16056545 -34.9609375 2.796875 C-24.59874217 -7.10938374 -11.79067888 -7.5984375 0 0 Z " fill="#0C2534" transform="translate(317.7578125,72.1328125)"/>
<path d="M0 0 C18.15 0 36.3 0 55 0 C55 4.29 55 8.58 55 13 C48.4 13 41.8 13 35 13 C35 31.15 35 49.3 35 68 C30.38 68 25.76 68 21 68 C21 49.85 21 31.7 21 13 C14.07 13 7.14 13 0 13 C0 8.71 0 4.42 0 0 Z " fill="#0B2433" transform="translate(227,51)"/>
<path d="M0 0 C3.0867067 2.1484811 5.02569623 4.43552918 7.171875 7.51171875 C4.201875 10.15171875 1.231875 12.79171875 -1.828125 15.51171875 C-2.59125 14.87234375 -3.354375 14.23296875 -4.140625 13.57421875 C-8.19905249 10.45961161 -11.64583367 10.11176957 -16.60546875 10.16015625 C-20.2155482 10.73117057 -21.70206172 12.67696771 -23.828125 15.51171875 C-26.44146806 19.12062108 -26.46765764 23.21885592 -25.828125 27.51171875 C-24.4865654 31.42206008 -22.79098112 33.9865245 -19.078125 36.01171875 C-13.54482306 36.86299597 -9.50960889 36.66773893 -4.828125 33.44921875 C-4.168125 32.80984375 -3.508125 32.17046875 -2.828125 31.51171875 C0.38231382 32.89360328 2.22123865 34.43593778 4.421875 37.13671875 C4.94265625 37.76835938 5.4634375 38.4 6 39.05078125 C6.58007812 39.77394531 6.58007812 39.77394531 7.171875 40.51171875 C5.95051502 41.6451893 4.71938319 42.76813462 3.484375 43.88671875 C2.79988281 44.51320312 2.11539063 45.1396875 1.41015625 45.78515625 C-5.39184338 51.03207394 -14.61948769 50.50338011 -22.828125 49.51171875 C-26.20577673 48.43905239 -28.31703044 46.98086185 -30.828125 44.51171875 C-31.46105469 43.91875 -32.09398437 43.32578125 -32.74609375 42.71484375 C-38.11099559 37.18401711 -40.82034467 31.22857027 -41.203125 23.51171875 C-40.76624945 14.70430769 -37.16975514 8.48748561 -30.828125 2.51171875 C-21.29857568 -4.87854399 -10.55023567 -5.86310867 0 0 Z " fill="#0B2433" transform="translate(372.828125,70.48828125)"/>
<path d="M0 0 C4.99860079 -0.1738677 9.99541928 -0.30044417 14.99633789 -0.38452148 C16.69489217 -0.4195882 18.39323718 -0.46725799 20.09106445 -0.52807617 C34.20774054 -1.02085542 34.20774054 -1.02085542 38.56274414 1.4597168 C40.2970587 3.210316 41.63719576 4.95396457 43 7 C45.07017406 8.81696269 47.17450449 10.57390449 49.30078125 12.32421875 C51.09642786 14.09509782 52.01111769 15.69595442 53 18 C51.37660195 19.70884005 49.70680947 21.37446717 48 23 C47.34 23 46.68 23 46 23 C46 23.66 46 24.32 46 25 C43.92247806 28.33975947 41.495526 30.23235023 38 32 C31.61091132 33.19394628 24.95996097 32.65737574 18.5 32.4375 C16.70578991 32.402348 14.91151368 32.37041582 13.1171875 32.34179688 C8.7431461 32.26505976 4.37230618 32.14449443 0 32 C2.19760382 27.40027865 5.27971954 23.65738034 8.41796875 19.65625 C10.16385243 17.22995647 10.16385243 17.22995647 10.0234375 15.0078125 C8.54373472 12.10488415 6.56076325 9.84051069 4.4375 7.375 C0 2.21060842 0 2.21060842 0 0 Z " fill="#1C9EEC" transform="translate(76,69)"/>
<path d="M0 0 C3.816308 2.05493508 6.67179173 3.74973353 8 8 C8 9.32 8 10.64 8 12 C0.74 12 -6.52 12 -14 12 C-14 7 -14 7 -11.6875 4.3125 C-7.56947163 0.76908024 -5.45750042 -0.64205887 0 0 Z " fill="#F6F7F7" transform="translate(305,77)"/>
</svg>
