<?xml version="1.0" encoding="UTF-8"?>
<svg version="1.1" xmlns="http://www.w3.org/2000/svg" width="381" height="133">
<path d="M0 0 C125.73 0 251.46 0 381 0 C381 43.89 381 87.78 381 133 C255.27 133 129.54 133 0 133 C0 89.11 0 45.22 0 0 Z " fill="#081024" transform="translate(0,0)"/>
<path d="M0 0 C1.31291016 0.5259375 1.31291016 0.5259375 2.65234375 1.0625 C10.24550662 4.43203915 18.70466208 10.10193466 22 18 C19.92276313 20.13126904 17.83868836 22.25500368 15.75 24.375 C15.16347656 24.97828125 14.57695313 25.5815625 13.97265625 26.203125 C13.39902344 26.78320312 12.82539062 27.36328125 12.234375 27.9609375 C11.44885254 28.76217041 11.44885254 28.76217041 10.64746094 29.57958984 C8.87453484 31.10817372 7.12735107 32.0414787 5 33 C4.19949219 32.20335938 4.19949219 32.20335938 3.3828125 31.390625 C-4.9833916 23.45865295 -12.37465815 20.29368625 -23.95727539 20.39282227 C-33.11338963 20.85046569 -40.20569398 24.71736318 -46.5 31.3125 C-53.90560624 40.63122118 -55.31704634 49.33143158 -54 61 C-51.5385515 69.90913661 -46.1647387 76.77020264 -38.9375 82.375 C-30.33718023 87.1326237 -19.69099859 87.5433657 -10.171875 85.34765625 C-5.22455253 83.33240077 -1.51819289 80.10423831 2.2734375 76.390625 C4 75 4 75 7 75 C8.80932617 76.37695312 8.80932617 76.37695312 10.79296875 78.28125 C11.50517578 78.95800781 12.21738281 79.63476562 12.95117188 80.33203125 C13.68916016 81.04746094 14.42714844 81.76289062 15.1875 82.5 C15.93708984 83.21542969 16.68667969 83.93085937 17.45898438 84.66796875 C19.31243979 86.43878603 21.15900354 88.21624806 23 90 C16.73708117 98.88117801 9.12145459 104.88279813 -1 109 C-1.71542969 109.2990625 -2.43085937 109.598125 -3.16796875 109.90625 C-9.71253137 112.15366737 -16.21085567 112.31326317 -23.0625 112.375 C-24.44526123 112.39578613 -24.44526123 112.39578613 -25.85595703 112.41699219 C-40.2641297 112.31948363 -52.3325728 106.22757013 -62.7109375 96.42578125 C-75.21290275 83.17711159 -80.60872602 67.26588562 -80.27734375 49.23828125 C-79.57035469 33.75135168 -71.88754496 20.58008937 -61 10 C-44.28511355 -5.0433978 -20.76589185 -8.97984513 0 0 Z " fill="#0064FA" transform="translate(83,16)"/>
<path d="M0 0 C4.74754335 3.93889586 8.99080866 7.69255412 10 14 C10 17.3 10 20.6 10 24 C-0.89 24 -11.78 24 -23 24 C-22.01 25.65 -21.02 27.3 -20 29 C-20 29.66 -20 30.32 -20 31 C-13.52316538 32.86975595 -7.15760854 32.716592 -1 30 C1.0625 30 1.0625 30 3 31 C5.25 34.0625 5.25 34.0625 7 37 C-0.11514413 42.40750954 -5.95548123 44.94182592 -15 44 C-22.39981502 42.524995 -27.66273507 39.23575933 -32.3203125 33.32421875 C-36.10168436 27.14974092 -36.04149749 19.9850809 -35 13 C-32.2611617 6.04826425 -28.16106716 0.98146055 -21.375 -2.25 C-13.93694217 -3.90290174 -6.66010161 -4.02119342 0 0 Z " fill="#F6F6F7" transform="translate(267,58)"/>
<path d="M0 0 C3.58725618 2.0178316 4.03305508 2.81611016 6 6.75 C3.69 9.06 1.38 11.37 -1 13.75 C-2.258125 13.09 -3.51625 12.43 -4.8125 11.75 C-10.23508216 9.35516876 -15.14464788 8.87443333 -21 9.75 C-26.35699151 12.17580748 -30.45976604 16.44488554 -33 21.75 C-34.33966899 28.23399791 -33.56888015 33.5246484 -30.375 39.3125 C-27.67447468 43.20700758 -25.72202362 45.52577165 -21 46.75 C-15.27419922 47.36490469 -10.00280418 47.81253182 -5 44.625 C-2 42.75 -2 42.75 0.1875 43.25 C0.785625 43.745 1.38375 44.24 2 44.75 C2.763125 45.36875 3.52625 45.9875 4.3125 46.625 C6 48.75 6 48.75 5.859375 50.71875 C4.17011598 54.71154406 -0.22379129 56.0590711 -4 57.75 C-12.71578202 60.92085353 -20.66147401 60.493828 -29 56.75 C-36.92239884 52.65763503 -41.77592412 47.21465379 -45.13671875 38.95703125 C-47.37514266 30.64143835 -47.37514898 20.20983049 -43.18359375 12.56640625 C-34.0945021 -1.38219974 -15.46994465 -7.4055829 0 0 Z " fill="#F7F7F8" transform="translate(176,42.25)"/>
<path d="M0 0 C3.63 0 7.26 0 11 0 C11 7.59 11 15.18 11 23 C11.66 23 12.32 23 13 23 C13.33 22.01 13.66 21.02 14 20 C18.84129405 16.73212652 23.33777877 16.13773281 29 17 C34.31176914 18.74248512 37.9414982 21.22873719 41 26 C42.18975795 29.56927385 42.12478155 32.79946972 42.09765625 36.51171875 C42.0962413 37.23994339 42.09482635 37.96816803 42.09336853 38.71846008 C42.08777659 41.04151539 42.07522562 43.36447388 42.0625 45.6875 C42.05748396 47.26367048 42.05292123 48.83984248 42.04882812 50.41601562 C42.0378098 54.27738098 42.02055074 58.13867408 42 62 C38.04 62 34.08 62 30 62 C29.98541748 61.13721436 29.97083496 60.27442871 29.95581055 59.38549805 C29.89472246 56.18150353 29.82056451 52.97815375 29.73754883 49.7746582 C29.70431451 48.38870623 29.67627774 47.00261939 29.65356445 45.61645508 C29.61999383 43.62293157 29.56612 41.62978259 29.51171875 39.63671875 C29.48553467 38.43748779 29.45935059 37.23825684 29.43237305 36.00268555 C29.25057677 33.01890637 29.25057677 33.01890637 27.59301758 31.14770508 C24.31828271 28.78839035 22.01260547 28.68528585 18 29 C14.28843126 30.76473555 14.28843126 30.76473555 12 34 C11.84558791 36.10374996 11.75007361 38.21195119 11.68359375 40.3203125 C11.64169922 41.57714844 11.59980469 42.83398438 11.55664062 44.12890625 C11.51732422 45.44761719 11.47800781 46.76632813 11.4375 48.125 C11.39430488 49.46485751 11.35069027 50.80470156 11.30664062 52.14453125 C11.20029019 55.42957815 11.09826192 58.71470281 11 62 C7.37 62 3.74 62 0 62 C0 41.54 0 21.08 0 0 Z " fill="#FAFAFA" transform="translate(331,38)"/>
<path d="M0 0 C16.5 0 33 0 50 0 C50 3.63 50 7.26 50 11 C43.73 11 37.46 11 31 11 C31 26.84 31 42.68 31 59 C27.04 59 23.08 59 19 59 C19 42.83 19 26.66 19 10 C12.73 10 6.46 10 0 10 C0 6.7 0 3.4 0 0 Z " fill="#FAFAFB" transform="translate(186,41)"/>
<path d="M0 0 C0.66 0.66 1.32 1.32 2 2 C1.74739753 5.78903708 -0.27849443 7.54186593 -3 10 C-3.804375 9.67 -4.60875 9.34 -5.4375 9 C-10.23264609 7.65399408 -15.28865855 6.53135671 -19.875 9.015625 C-22.5495005 11.15008213 -23.91218893 12.7365668 -25 16 C-25.58494725 22.08345145 -24.33600636 25.0941083 -21 30 C-18.67404054 31.16297973 -17.21276769 31.16600691 -14.625 31.1875 C-13.85414063 31.20167969 -13.08328125 31.21585938 -12.2890625 31.23046875 C-9.77210002 30.97705444 -8.20708952 30.19060479 -6 29 C-4.0625 29 -4.0625 29 -2 30 C-0.16033275 31.90292229 1.38457481 33.89097267 3 36 C-3.83541298 41.41136861 -10.13439236 43.91713182 -19 43 C-26.61177559 41.05394734 -31.67746008 37.59432937 -36 31 C-38.0291528 26.96884025 -38.29787329 23.55290126 -38.3125 19.0625 C-38.32925781 17.87785156 -38.34601563 16.69320312 -38.36328125 15.47265625 C-37.5923836 8.10353784 -33.68612544 4.27211835 -28.25390625 -0.296875 C-19.88599389 -6.61994222 -8.60031146 -5.17908866 0 0 Z " fill="#F5F5F6" transform="translate(321,59)"/>
<path d="M0 0 C4.37380837 -0.2497782 8.74370806 -0.42978019 13.12255859 -0.54931641 C14.60701873 -0.5991953 16.09099793 -0.66713623 17.57373047 -0.75439453 C29.90789849 -1.4613428 29.90789849 -1.4613428 35.20019531 2.23535156 C37.65557038 4.71546593 39.8313856 7.27083146 42 10 C42.66 10.33 43.32 10.66 44 11 C41.4889604 16.76581578 37.35152947 20.78660857 32 24 C26.55863009 25.06244424 21.38481515 24.86431234 15.875 24.5625 C14.42720927 24.51725654 12.97928106 24.47620933 11.53125 24.43945312 C8.0179296 24.34126334 4.50986887 24.18655945 1 24 C1.92961422 22.84775972 2.8690125 21.70340824 3.8125 20.5625 C4.33457031 19.92441406 4.85664062 19.28632812 5.39453125 18.62890625 C7 17 7 17 10 16 C10 15.34 10 14.68 10 14 C10.66 13.34 11.32 12.68 12 12 C11.13375 11.21753906 10.2675 10.43507813 9.375 9.62890625 C8.24987038 8.60691351 7.1248774 7.58477034 6 6.5625 C5.42765625 6.04623047 4.8553125 5.52996094 4.265625 4.99804688 C2.82480421 3.6858708 1.41014216 2.34509096 0 1 C0 0.67 0 0.34 0 0 Z " fill="#0063F8" transform="translate(58,58)"/>
<path d="M0 0 C3.3125 1.6875 3.3125 1.6875 6 4 C6.33 5.65 6.66 7.3 7 9 C0.07 9 -6.86 9 -14 9 C-10.54976975 2.0995395 -7.97891284 -1.13984469 0 0 Z " fill="#131A2E" transform="translate(258,65)"/>
</svg>
