<?xml version="1.0" encoding="UTF-8"?>
<svg version="1.1" xmlns="http://www.w3.org/2000/svg" width="1536" height="1024">
<path d="M0 0 C506.88 0 1013.76 0 1536 0 C1536 337.92 1536 675.84 1536 1024 C1029.12 1024 522.24 1024 0 1024 C0 686.08 0 348.16 0 0 Z " fill="#FEFEFE" transform="translate(0,0)"/>
<path d="M0 0 C0.8859082 0.22558594 1.77181641 0.45117188 2.68457031 0.68359375 C55.7810091 14.44861706 103.27068553 44.34250331 139 86 C140.31104343 87.50127326 141.62350626 89.00130834 142.9375 90.5 C143.95833333 91.66666667 144.97916667 92.83333333 146 94 C144.43667078 97.99207282 141.63950856 100.4160785 138.5 103.1875 C137.96391113 103.66944824 137.42782227 104.15139648 136.87548828 104.64794922 C135.77769288 105.63391707 134.67759543 106.61732787 133.57519531 107.59814453 C131.33112019 109.59527401 129.10437291 111.61148701 126.875 113.625 C125.25026467 115.0836282 123.62526641 116.54196358 122 118 C120.33307353 119.49971128 118.66640851 120.99971321 117 122.5 C116.17757813 123.23992187 115.35515625 123.97984375 114.5078125 124.7421875 C112.81407106 126.26708244 111.12138831 127.79315402 109.4296875 129.3203125 C105.02409661 133.29477523 100.59471728 137.23579301 96.1171875 141.12890625 C93.60981704 143.34482959 91.15098411 145.61040908 88.6875 147.875 C84.09368934 152.06740973 79.36464 156.04190485 74.52734375 159.94921875 C71.29598385 162.57126504 68.1445053 165.27476207 65 168 C61.98168412 166.67504335 60.24036974 165.37434571 58.1875 162.8125 C43.3883699 145.46829657 26.35900271 131.31522804 6 121 C5.36852051 120.67805664 4.73704102 120.35611328 4.08642578 120.02441406 C-4.96277014 115.46833861 -14.21229101 111.67188327 -24 109 C-24.82564453 108.77006348 -25.65128906 108.54012695 -26.50195312 108.30322266 C-50.89636572 101.79010852 -80.35780604 100.70766008 -105 107 C-105.80598633 107.20399414 -106.61197266 107.40798828 -107.44238281 107.61816406 C-119.10121783 110.66712472 -130.16603263 114.73677349 -141 120 C-142.0828125 120.52078125 -143.165625 121.0415625 -144.28125 121.578125 C-159.18556877 129.1778519 -172.09578683 139.34587534 -184 151 C-184.73476563 151.68449219 -185.46953125 152.36898437 -186.2265625 153.07421875 C-195.9170707 162.28213192 -203.35802922 173.47739078 -210 185 C-210.65742187 186.11503906 -211.31484375 187.23007812 -211.9921875 188.37890625 C-233.27308209 225.50793606 -237.17743456 271.48584705 -226.64453125 312.56640625 C-225.28938979 317.44769052 -223.71376864 322.2338064 -222 327 C-221.73848145 327.7336377 -221.47696289 328.46727539 -221.20751953 329.22314453 C-215.00462751 346.23646563 -205.76423292 361.27907943 -194 375 C-193.28457031 375.8350708 -193.28457031 375.8350708 -192.5546875 376.68701172 C-172.35289729 399.97443633 -145.54388919 417.13829436 -116 426 C-115.35869141 426.19674316 -114.71738281 426.39348633 -114.05664062 426.59619141 C-91.26541175 433.49048006 -64.41465057 434.85054041 -41 430 C-40.23526367 429.84934082 -39.47052734 429.69868164 -38.68261719 429.54345703 C-2.26073691 422.23802787 27.33737763 403.62248408 53.5 377.625 C54.01675293 377.11291992 54.53350586 376.60083984 55.06591797 376.07324219 C57.32357855 373.80580167 59.21805943 371.67291086 61 369 C64.42768661 369.58763037 66.12590397 370.7315889 68.609375 373.1328125 C69.28226563 373.77476562 69.95515625 374.41671875 70.6484375 375.078125 C71.34195312 375.75359375 72.03546875 376.4290625 72.75 377.125 C74.11849123 378.44145734 75.48828177 379.75656537 76.859375 381.0703125 C77.54128906 381.72418945 78.22320313 382.37806641 78.92578125 383.05175781 C81.61187642 385.57471444 84.37959914 387.99357893 87.16503906 390.40576172 C89.64786539 392.562874 92.07436835 394.77893969 94.5 397 C97.64083556 399.86471815 100.79100756 402.71185902 104 405.5 C108.18007076 409.13186476 112.26095315 412.86958192 116.3515625 416.6015625 C118.50571307 418.55237143 120.67718469 420.47393612 122.875 422.375 C127.18845082 426.11451973 131.35593194 430.01038892 135.52099609 433.91357422 C137.93360442 436.16074655 140.24999726 438.16666484 143 440 C142.88195956 443.89533465 141.55552523 445.69793848 138.875 448.3125 C138.24078125 448.90933594 137.6065625 449.50617188 136.953125 450.12109375 C135.04661303 451.95515826 133.33860169 453.86111764 131.625 455.875 C125.31590947 463.17209128 118.38889091 469.80930762 111 476 C110.46552246 476.45358887 109.93104492 476.90717773 109.38037109 477.37451172 C99.09384161 486.07593123 88.39916269 493.82144521 77 501 C76.31357422 501.4340918 75.62714844 501.86818359 74.91992188 502.31542969 C50.36359445 517.68972323 23.14635254 529.15358992 -5 536 C-6.10214844 536.27199219 -7.20429687 536.54398438 -8.33984375 536.82421875 C-16.02085744 538.58386916 -23.78893601 539.84956457 -31.5625 541.125 C-32.59125244 541.29588135 -33.62000488 541.4667627 -34.67993164 541.64282227 C-85.51163648 549.74537422 -139.73090043 541.23637465 -186 519 C-186.91942383 518.55817383 -187.83884766 518.11634766 -188.78613281 517.66113281 C-211.96027878 506.36108267 -233.49064912 492.18203266 -252.30078125 474.51171875 C-254.48804586 472.47639148 -256.70817803 470.53878948 -259 468.625 C-268.70661431 460.16436931 -276.89478915 450.02095965 -284.64550781 439.78710938 C-285.54349617 438.60230859 -286.44645136 437.42125483 -287.35449219 436.24414062 C-324.86149337 387.58494975 -343.56561526 326.83875935 -343.3125 265.75 C-343.30926727 264.33618042 -343.30926727 264.33618042 -343.30596924 262.89379883 C-343.25408254 248.72183188 -342.74874872 234.93954488 -340 221 C-339.81195801 219.9879248 -339.62391602 218.97584961 -339.43017578 217.93310547 C-334.5959898 192.33922503 -326.60228003 167.34256914 -315 144 C-314.58137695 143.14647949 -314.16275391 142.29295898 -313.73144531 141.41357422 C-298.61482953 110.80494856 -276.70839515 79.70901596 -250 58 C-248.8626613 57.03979634 -247.72601337 56.07877421 -246.58984375 55.1171875 C-236.87137728 46.97057308 -226.72727606 39.75543819 -216 33 C-215.31357422 32.5659082 -214.62714844 32.13181641 -213.91992188 31.68457031 C-150.83261659 -7.81330465 -71.88740616 -18.46074848 0 0 Z " fill="#097CDA" transform="translate(826,240)"/>
<path d="M0 0 C19.2542009 -0.2339352 38.50811218 -0.4101053 57.76344109 -0.51812172 C66.7047574 -0.56961637 75.64518912 -0.63977869 84.5859375 -0.75439453 C92.38169943 -0.85428431 100.17682059 -0.91863266 107.97320473 -0.94088495 C112.09911278 -0.95388706 116.22318827 -0.9842853 120.34850693 -1.05730057 C124.23805075 -1.12557995 128.12502187 -1.14603969 132.01510811 -1.13107681 C133.43655107 -1.13381059 134.85808694 -1.1534746 136.27900887 -1.19205475 C142.24869677 -1.34608359 147.04645557 -1.41969461 151.99304581 2.17512894 C154.50187602 4.67679448 156.74534741 7.2706548 159 10 C160.33825493 11.23742913 161.6982415 12.45251839 163.09375 13.625 C168.10740703 17.92385854 172.85947508 22.48933696 177.64453125 27.0390625 C181.75173694 30.92851872 185.91539075 34.72270154 190.20703125 38.40820312 C192.65272267 40.5794869 194.9192298 42.90726886 197.20703125 45.2421875 C199.72343415 47.70924917 202.40143285 49.96860991 205.10546875 52.2265625 C207.32910215 54.30806676 209.14455603 56.58915706 211 59 C207.28337938 62.76380428 203.55630135 66.51712892 199.8125 70.25390625 C198.86310547 71.20245483 198.86310547 71.20245483 197.89453125 72.17016602 C195.42490497 74.55545583 192.84427133 76.78903467 190.21875 79 C186.1451192 82.67200523 182.34870011 86.63333172 178.49047852 90.52905273 C175.38877152 93.64934906 172.30151389 96.7216157 168.9375 99.5625 C166.33860859 101.78754092 163.87416483 104.07944949 161.48046875 106.5234375 C160.8469751 107.16466553 160.21348145 107.80589355 159.56079102 108.46655273 C158.28440746 109.76611692 157.01263685 111.07023017 155.74584961 112.37915039 C155.16198486 112.9746167 154.57812012 113.57008301 153.9765625 114.18359375 C153.45143066 114.72556396 152.92629883 115.26753418 152.38525391 115.82592773 C151 117 151 117 149 117 C149 117.66 149 118.32 149 119 C99.5 119 50 119 -1 119 C2.73007497 114.64824586 6.31542236 110.55657751 10.33105469 106.52368164 C10.82615036 106.02522736 11.32124603 105.52677307 11.8313446 105.01321411 C13.44226096 103.39292115 15.05680516 101.77630841 16.671875 100.16015625 C17.80201317 99.02680036 18.93207788 97.8933712 20.06207275 96.75987244 C22.41705627 94.39893408 24.77406387 92.04003806 27.13232422 89.68237305 C30.15938231 86.65541733 33.17945895 83.62159547 36.19788742 80.58603764 C38.52268791 78.25015531 40.85198185 75.91879489 43.1825943 73.58871269 C44.29900896 72.47111573 45.41379726 71.35189171 46.52693939 70.23103523 C48.07545608 68.67277946 49.63010863 67.12091798 51.18652344 65.57055664 C52.06999451 64.68566055 52.95346558 63.80076447 53.8637085 62.88905334 C56 61 56 61 58 61 C55.75550825 56.85133102 52.94855807 53.67929182 49.6105957 50.39941406 C49.07371124 49.86384384 48.53682678 49.32827362 47.9836731 48.776474 C46.21894064 47.01820098 44.44734324 45.26701422 42.67578125 43.515625 C41.44644709 42.29256389 40.21762843 41.06898444 38.98930359 39.84490967 C35.76313232 36.63201245 32.53143116 33.42474079 29.2980957 30.21905518 C24.11087837 25.0750487 18.93047449 19.92420128 13.75319481 14.77019501 C11.94070551 12.96796478 10.12486339 11.16916297 8.30867004 9.3706665 C7.20607416 8.27489373 6.10358508 7.17901348 5.0012207 6.08300781 C4.49164322 5.58016769 3.98206573 5.07732758 3.45704651 4.55924988 C2.28560488 3.39168114 1.13970542 2.1985674 0 1 C0 0.67 0 0.34 0 0 Z " fill="#1EABFC" transform="translate(744,449)"/>
<path d="M0 0 C0.66 0.33 1.32 0.66 2 1 C-3.61 6.61 -9.22 12.22 -15 18 C56.775 18.495 56.775 18.495 130 19 C130 19.66 130 20.32 130 21 C80.5 21 31 21 -20 21 C-13.25 13.125 -13.25 13.125 -10.3515625 10.25390625 C-9.73925781 9.64482422 -9.12695312 9.03574219 -8.49609375 8.40820312 C-7.87863281 7.79912109 -7.26117187 7.19003906 -6.625 6.5625 C-5.98433594 5.92634766 -5.34367188 5.29019531 -4.68359375 4.63476562 C-3.12469121 3.08749668 -1.56348584 1.54263508 0 0 Z " fill="#14A6FA" transform="translate(763,547)"/>
<path d="M0 0 C0.7425 0.804375 1.485 1.60875 2.25 2.4375 C4.96220095 4.96477816 5.6748303 5.19737283 9 6 C10 8 10 8 11 10 C12.32594105 10.36162029 13.65938457 10.69728039 15 11 C15.33 11.99 15.66 12.98 16 14 C17.78949628 15.23531167 17.78949628 15.23531167 19.9375 16.1875 C20.64777344 16.53167969 21.35804688 16.87585938 22.08984375 17.23046875 C23.96596296 18.12455962 23.96596296 18.12455962 26 18 C26.21785156 18.60714844 26.43570313 19.21429687 26.66015625 19.83984375 C28.46492547 22.74957372 30.2902149 23.29606257 33.4375 24.5625 C37.05357094 26.03107741 39.28247584 27.26839541 42 30 C43.86509405 30.95818869 45.7649186 31.85061163 47.6875 32.6875 C48.68136719 33.12449219 49.67523437 33.56148437 50.69921875 34.01171875 C51.45847656 34.33785156 52.21773437 34.66398438 53 35 C53 35.66 53 36.32 53 37 C53.64324219 37.08121094 54.28648437 37.16242187 54.94921875 37.24609375 C59.185217 38.29288973 62.89821985 40.16277812 66.8125 42.0625 C67.60076172 42.43955078 68.38902344 42.81660156 69.20117188 43.20507812 C71.13652473 44.13170161 73.06859549 45.06517467 75 46 C70.98427532 47.33857489 68.78201379 45.92091951 65.125 44.25 C64.42592529 43.93490479 63.72685059 43.61980957 63.0065918 43.29516602 C10.18965487 19.07995789 10.18965487 19.07995789 -2 1 C-1.34 0.67 -0.68 0.34 0 0 Z " fill="#0860C9" transform="translate(582,718)"/>
<path d="M0 0 C1.83350768 0.14362477 3.66679783 0.29002705 5.5 0.4375 C7.03140625 0.55931641 7.03140625 0.55931641 8.59375 0.68359375 C10.93207203 0.90080027 13.26513368 1.18102838 15.58984375 1.51367188 C20.3894726 2.11747332 25.13727012 2.12607705 29.96875 2.09765625 C30.88966431 2.0962413 31.81057861 2.09482635 32.75939941 2.09336853 C35.67296734 2.08781407 38.58645568 2.07527025 41.5 2.0625 C43.48697805 2.05747911 45.47395731 2.05291723 47.4609375 2.04882812 C52.30732188 2.0378596 57.15364749 2.02062683 62 2 C62 2.33 62 2.66 62 3 C59.97924243 3.31298952 57.95839006 3.62536704 55.9375 3.9375 C54.24947266 4.19853516 54.24947266 4.19853516 52.52734375 4.46484375 C51.36332031 4.64144531 50.19929687 4.81804688 49 5 C47.32744141 5.27650391 47.32744141 5.27650391 45.62109375 5.55859375 C41.42827018 6.06969306 37.34312223 6.14681787 33.125 6.125 C31.96871094 6.13080078 31.96871094 6.13080078 30.7890625 6.13671875 C25.12674989 6.12674989 25.12674989 6.12674989 24 5 C22.47868665 4.72744533 20.94748938 4.50949268 19.4140625 4.31640625 C18.01800781 4.13174805 18.01800781 4.13174805 16.59375 3.94335938 C14.62276028 3.69050214 12.65140496 3.44047781 10.6796875 3.19335938 C9.74640625 3.06896484 8.813125 2.94457031 7.8515625 2.81640625 C6.56499756 2.65313843 6.56499756 2.65313843 5.25244141 2.48657227 C3 2 3 2 0 0 Z " fill="#0563CF" transform="translate(720,670)"/>
<path d="M0 0 C3.73083787 1.59767645 6.39919855 3.96184839 9.4375 6.625 C21.01009723 16.46888844 34.56269186 23.08828729 48 30 C47.67 30.66 47.34 31.32 47 32 C31.85553838 25.63932612 18.85801689 17.11218564 6 7 C5.4028418 6.5349707 4.80568359 6.06994141 4.19042969 5.59082031 C2.75377877 4.44200455 1.370868 3.22656611 0 2 C0 1.34 0 0.68 0 0 Z " fill="#0E68D2" transform="translate(645,630)"/>
<path d="M0 0 C2.97246802 2.54782974 4.41535288 5.45340883 6 9 C6 9.66 6 10.32 6 11 C6.66 11 7.32 11 8 11 C8.433125 12.093125 8.86625 13.18625 9.3125 14.3125 C10.52114158 17.15166749 11.70863646 18.90788546 14 21 C15.25 23.0625 15.25 23.0625 16 25 C15.67 25.66 15.34 26.32 15 27 C15.66 27 16.32 27 17 27 C17.103125 27.639375 17.20625 28.27875 17.3125 28.9375 C17.539375 29.618125 17.76625 30.29875 18 31 C18.99 31.33 19.98 31.66 21 32 C21 32.66 21 33.32 21 34 C21.96113866 35.36161311 22.95884159 36.69855198 24 38 C21.31073932 37.64768404 20.24188357 37.28639352 18.46362305 35.1809082 C17.98449463 34.39546631 17.50536621 33.61002441 17.01171875 32.80078125 C16.47313232 31.92719971 15.9345459 31.05361816 15.37963867 30.15356445 C14.82123291 29.21601318 14.26282715 28.27846191 13.6875 27.3125 C13.11298096 26.36528076 12.53846191 25.41806152 11.9465332 24.44213867 C0 4.53125 0 4.53125 0 0 Z " fill="#0863CD" transform="translate(511,629)"/>
<path d="M0 0 C11.88 0 23.76 0 36 0 C31.12242816 2.43878592 27.31845001 3.13078804 21.91796875 3.09765625 C20.98662109 3.09443359 20.05527344 3.09121094 19.09570312 3.08789062 C18.13599609 3.07951172 17.17628906 3.07113281 16.1875 3.0625 C14.71893555 3.05573242 14.71893555 3.05573242 13.22070312 3.04882812 C10.81373889 3.03708684 8.40690143 3.02066419 6 3 C6 2.34 6 1.68 6 1 C4.02 1 2.04 1 0 1 C0 0.67 0 0.34 0 0 Z " fill="#108AED" transform="translate(738,232)"/>
<path d="M0 0 C8.44575728 8.1733135 16.22369829 17.17546905 23.6875 26.25 C25.6933357 28.63531814 27.7568585 30.83993782 30 33 C27 33 27 33 25.421875 31.75 C24.59429688 30.88375 24.59429688 30.88375 23.75 30 C23.13125 29.35289062 22.5125 28.70578125 21.875 28.0390625 C18.84837818 24.74761127 15.90672891 21.39769272 13 18 C12.06149136 16.92552487 11.12266537 15.85132689 10.18359375 14.77734375 C9.18446266 13.62277054 8.18576554 12.46782165 7.1875 11.3125 C6.70700195 10.76577637 6.22650391 10.21905273 5.73144531 9.65576172 C3.1035178 6.59046799 1.23756339 3.85576107 0 0 Z " fill="#0B62CC" transform="translate(540,676)"/>
<path d="M0 0 C1.27939453 0.03544922 2.55878906 0.07089844 3.87695312 0.10742188 C5.71870117 0.17219727 5.71870117 0.17219727 7.59765625 0.23828125 C9.27807007 0.29495972 9.27807007 0.29495972 10.99243164 0.3527832 C13.81160702 0.67319184 15.5343648 1.23113202 17.9375 2.6875 C11.61610837 4.20542941 5.32389533 3.61288245 -1.125 3.375 C-2.40439453 3.33955078 -3.68378906 3.30410156 -5.00195312 3.26757812 C-6.84370117 3.20280273 -6.84370117 3.20280273 -8.72265625 3.13671875 C-9.84293213 3.09893311 -10.96320801 3.06114746 -12.11743164 3.0222168 C-14.93660702 2.70180816 -16.6593648 2.14386798 -19.0625 0.6875 C-12.74110837 -0.83042941 -6.44889533 -0.23788245 0 0 Z " fill="#0881E8" transform="translate(764.0625,340.3125)"/>
<path d="M0 0 C0 0.66 0 1.32 0 2 C0.99 2.103125 1.98 2.20625 3 2.3125 C6.38794695 2.79745463 9.35272289 3.82858915 12.53515625 5.1015625 C17.9109872 7.06105714 23.48834201 8.47500474 29 10 C29 10.33 29 10.66 29 11 C20.99835611 10.63186396 13.98187552 8.66321517 6.4375 6.0625 C5.34630859 5.70220703 4.25511719 5.34191406 3.13085938 4.97070312 C-4.86767084 2.26465832 -4.86767084 2.26465832 -6 0 C-3 -1 -3 -1 0 0 Z " fill="#0B5EC8" transform="translate(664,765)"/>
<path d="M0 0 C10.80597071 0.56260889 21.34093 2.21035678 32 4 C30 6 30 6 28.0546875 6.1953125 C26.03645833 6.13020833 24.01822917 6.06510417 22 6 C22 5.34 22 4.68 22 4 C20.700625 4.309375 20.700625 4.309375 19.375 4.625 C15.54520962 5.05053226 13.61970646 4.20656882 10 3 C6.99162218 2.82710472 4.00981212 2.87960752 1 3 C0.67 2.01 0.34 1.02 0 0 Z " fill="#198DEE" transform="translate(782,233)"/>
<path d="M0 0 C-1 3 -1 3 -3.44140625 4.4296875 C-4.98634766 5.14511719 -4.98634766 5.14511719 -6.5625 5.875 C-11.0439193 8.01434421 -15.24525708 10.2726547 -19.37890625 13.01953125 C-21 14 -21 14 -24 15 C-24.33 14.01 -24.66 13.02 -25 12 C-21.21179916 9.99338316 -17.41888948 7.9958376 -13.625 6 C-12.54476562 5.42765625 -11.46453125 4.8553125 -10.3515625 4.265625 C-9.3203125 3.72421875 -8.2890625 3.1828125 -7.2265625 2.625 C-6.27346191 2.12226563 -5.32036133 1.61953125 -4.33837891 1.1015625 C-2 0 -2 0 0 0 Z " fill="#1182E6" transform="translate(641,257)"/>
<path d="M0 0 C0.33 0.66 0.66 1.32 1 2 C-1.51954288 2.9618423 -4.04053637 3.91954241 -6.5625 4.875 C-7.26697266 5.14441406 -7.97144531 5.41382813 -8.69726562 5.69140625 C-21.05307026 10.36041998 -21.05307026 10.36041998 -27 10 C-26.01 9.67 -25.02 9.34 -24 9 C-24 8.34 -24 7.68 -24 7 C-23.44054687 6.91363281 -22.88109375 6.82726562 -22.3046875 6.73828125 C-14.53332497 5.37641868 -7.35743028 2.77758895 0 0 Z " fill="#095ECA" transform="translate(851,764)"/>
<path d="M0 0 C0.66 0.66 1.32 1.32 2 2 C-2.06759896 2.9860846 -5.82771906 3 -10 3 C-10.99 3.185625 -11.98 3.37125 -13 3.5625 C-16.53295219 4.07772219 -19.50244971 3.62955905 -23 3 C-23 2.67 -23 2.34 -23 2 C-20.29215006 1.66227261 -17.58383004 1.32969313 -14.875 1 C-14.11445312 0.90460938 -13.35390625 0.80921875 -12.5703125 0.7109375 C-4.16328019 -0.30370433 -4.16328019 -0.30370433 0 0 Z " fill="#1388EA" transform="translate(731,233)"/>
<path d="M0 0 C0.66 0.33 1.32 0.66 2 1 C-5.07710917 6.15125867 -12.38147872 10.69331014 -20 15 C-20.33 14.34 -20.66 13.68 -21 13 C-20.36191406 12.66226563 -19.72382812 12.32453125 -19.06640625 11.9765625 C-18.24011719 11.53054688 -17.41382813 11.08453125 -16.5625 10.625 C-15.73878906 10.18414063 -14.91507813 9.74328125 -14.06640625 9.2890625 C-11.86533422 8.16581441 -11.86533422 8.16581441 -11 6 C-9.22562107 4.87499249 -7.40537052 3.82140571 -5.5625 2.8125 C-4.57378906 2.26207031 -3.58507812 1.71164062 -2.56640625 1.14453125 C-1.71949219 0.76683594 -0.87257813 0.38914062 0 0 Z " fill="#0A64CE" transform="translate(911,733)"/>
<path d="M0 0 C-2.76543196 1.51012131 -5.53816807 3.00630148 -8.3125 4.5 C-9.49102539 5.14388672 -9.49102539 5.14388672 -10.69335938 5.80078125 C-11.45068359 6.20683594 -12.20800781 6.61289062 -12.98828125 7.03125 C-13.68477783 7.40830078 -14.38127441 7.78535156 -15.09887695 8.17382812 C-17 9 -17 9 -20 9 C-20 8.34 -20 7.68 -20 7 C-19.30132813 6.73445312 -18.60265625 6.46890625 -17.8828125 6.1953125 C-16.97273437 5.84210937 -16.06265625 5.48890625 -15.125 5.125 C-13.76761719 4.60292969 -13.76761719 4.60292969 -12.3828125 4.0703125 C-9.87782993 3.11469105 -9.87782993 3.11469105 -8 1 C-3.53125 -1.17708333 -3.53125 -1.17708333 0 0 Z " fill="#0B60CC" transform="translate(889,749)"/>
<path d="M0 0 C4.15300707 3.3947333 7.73067044 6.71605092 11 11 C12.31494512 12.35147138 13.64264858 13.69112542 15 15 C12 15 12 15 10.3515625 13.6796875 C0 2.85972851 0 2.85972851 0 0 Z " fill="#1469D0" transform="translate(555,694)"/>
<path d="M0 0 C0.66 0 1.32 0 2 0 C2 2.31 2 4.62 2 7 C1.01 7.33 0.02 7.66 -1 8 C-1.12375 8.928125 -1.2475 9.85625 -1.375 10.8125 C-2 14 -2 14 -4 17 C-3.45018084 10.95198929 -2.09570426 5.69398894 0 0 Z " fill="#0D6FD7" transform="translate(500,409)"/>
<path d="M0 0 C3.17391668 3.00235362 5.71252601 6.19753642 8.25 9.75 C8.95640625 10.73484375 9.6628125 11.7196875 10.390625 12.734375 C10.92171875 13.48203125 11.4528125 14.2296875 12 15 C11.34 15.66 10.68 16.32 10 17 C10 16.34 10 15.68 10 15 C9.34 15 8.68 15 8 15 C6.93360356 13.37501495 5.95289657 11.69403834 5 10 C3.67045606 7.91810934 2.33186975 5.84238312 0.98828125 3.76953125 C0 2 0 2 0 0 Z " fill="#0967D1" transform="translate(616,595)"/>
<path d="M0 0 C0.66 0.33 1.32 0.66 2 1 C-1.09933307 2.99956972 -4.29097562 4.68360682 -7.625 6.25 C-8.75808594 6.78367187 -8.75808594 6.78367187 -9.9140625 7.328125 C-12 8 -12 8 -15 7 C-12.54595776 5.80283341 -10.08748321 4.6170654 -7.625 3.4375 C-6.57699219 2.92413086 -6.57699219 2.92413086 -5.5078125 2.40039062 C-3.69947784 1.53969288 -1.85148044 0.76347564 0 0 Z " fill="#0C67D2" transform="translate(828,656)"/>
<path d="M0 0 C4.29 0.99 8.58 1.98 13 3 C13 3.99 13 4.98 13 6 C8.16371695 5.00956295 3.52381127 4.04301154 -1 2 C-0.67 1.34 -0.34 0.68 0 0 Z " fill="#138CEF" transform="translate(825,240)"/>
<path d="M0 0 C0.66 0.99 1.32 1.98 2 3 C-0.64 5.31 -3.28 7.62 -6 10 C-6.66 9.67 -7.32 9.34 -8 9 C-7.1875 7.0625 -7.1875 7.0625 -6 5 C-5.01 4.67 -4.02 4.34 -3 4 C-2.67 3.34 -2.34 2.68 -2 2 C-1.34 2 -0.68 2 0 2 C0 1.34 0 0.68 0 0 Z " fill="#158FEE" transform="translate(937,363)"/>
<path d="M0 0 C-1.90175025 2.4300142 -2.92546173 2.98291831 -6 3.6875 C-9 4 -9 4 -12 4 C-12 3.34 -12 2.68 -12 2 C-10.56656 1.46809459 -9.12804633 0.94984742 -7.6875 0.4375 C-6.48673828 0.00244141 -6.48673828 0.00244141 -5.26171875 -0.44140625 C-3 -1 -3 -1 0 0 Z " fill="#1086E9" transform="translate(678,244)"/>
<path d="M0 0 C1.32 0.33 2.64 0.66 4 1 C0.82679218 4.53586014 -1.16743695 6.58578031 -6 7 C-4.02 4.69 -2.04 2.38 0 0 Z " fill="#1B85E5" transform="translate(568,305)"/>
<path d="M0 0 C2.96404505 2.80804268 5.44499019 5.18315774 7 9 C6.01 9.495 6.01 9.495 5 10 C4.34 9.67 3.68 9.34 3 9 C3 7.68 3 6.36 3 5 C2.01 4.67 1.02 4.34 0 4 C0 2.68 0 1.36 0 0 Z " fill="#1A90EF" transform="translate(965,327)"/>
<path d="M0 0 C3.26008643 3.16952847 6.22237877 6.39937989 9 10 C7.35 10 5.7 10 4 10 C3.71125 9.195625 3.4225 8.39125 3.125 7.5625 C2.26737432 4.8673532 2.26737432 4.8673532 0 4 C0 2.68 0 1.36 0 0 Z " fill="#178FF0" transform="translate(956,317)"/>
<path d="M0 0 C4.95 1.98 4.95 1.98 10 4 C10 4.66 10 5.32 10 6 C6.44219804 5.39009109 3.3171411 4.4216319 0 3 C0 2.01 0 1.02 0 0 Z " fill="#1890EF" transform="translate(862,252)"/>
<path d="M0 0 C-3.28491373 2.18994248 -4.83095639 2.35277339 -8.6875 2.625 C-10.17830078 2.73714844 -10.17830078 2.73714844 -11.69921875 2.8515625 C-12.83810547 2.92503906 -12.83810547 2.92503906 -14 3 C-8.94034498 -0.37310335 -6.02873385 -1.40203113 0 0 Z " fill="#0458C6" transform="translate(810,777)"/>
<path d="M0 0 C6.64615385 1.47692308 6.64615385 1.47692308 8.4375 4.125 C8.7159375 5.053125 8.7159375 5.053125 9 6 C5.59687262 4.94124926 2.98646769 3.99097846 0 2 C0 1.34 0 0.68 0 0 Z " fill="#178BEB" transform="translate(821,353)"/>
<path d="M0 0 C0.33 0.66 0.66 1.32 1 2 C-3.62921525 3.0161692 -7.34462607 2.83796731 -12 2 C-12 1.67 -12 1.34 -12 1 C-7.93631321 0.22596442 -4.13574827 -0.0984702 0 0 Z " fill="#2C97EE" transform="translate(720,234)"/>
<path d="M0 0 C0 0.66 0 1.32 0 2 C-4.455 2.495 -4.455 2.495 -9 3 C-9 2.01 -9 1.02 -9 0 C-5.62182575 -0.84454356 -3.32534757 -1.10844919 0 0 Z " fill="#1989E7" transform="translate(733,343)"/>
<path d="M0 0 C-3.42094242 2.28062828 -4.68187222 2.21925007 -8.6875 2.125 C-10.17830078 2.09792969 -10.17830078 2.09792969 -11.69921875 2.0703125 C-12.45847656 2.04710937 -13.21773437 2.02390625 -14 2 C-14 1.67 -14 1.34 -14 1 C-8.80451575 -1.20808081 -5.41735797 -0.93402724 0 0 Z " fill="#0456C5" transform="translate(792,780)"/>
<path d="M0 0 C3.94139078 1.66751148 6.7892812 4.22710649 10 7 C9.34 7.66 8.68 8.32 8 9 C6.66079162 7.88200014 5.32877444 6.75538103 4 5.625 C2.88625 4.68527344 2.88625 4.68527344 1.75 3.7265625 C1.1725 3.15679688 0.595 2.58703125 0 2 C0 1.34 0 0.68 0 0 Z " fill="#0E6AD4" transform="translate(645,630)"/>
<path d="M0 0 C1.34173403 0.92543709 2.67320159 1.86577405 4 2.8125 C5.11375 3.59560547 5.11375 3.59560547 6.25 4.39453125 C6.8275 4.92433594 7.405 5.45414062 8 6 C8 6.99 8 7.98 8 9 C6.84775972 8.07038578 5.70340824 7.1309875 4.5625 6.1875 C3.60537109 5.40439453 3.60537109 5.40439453 2.62890625 4.60546875 C1 3 1 3 0 0 Z " fill="#0B84EB" transform="translate(865,381)"/>
<path d="M0 0 C3.3 0 6.6 0 10 0 C6.71299843 1.64350079 4.52069985 2.41321669 1 3 C0.67 2.01 0.34 1.02 0 0 Z " fill="#2094EE" transform="translate(764,232)"/>
<path d="M0 0 C3.71888239 0.50712033 6.73454239 1.11608215 10 3 C9.67 3.66 9.34 4.32 9 5 C2.25 2.25 2.25 2.25 0 0 Z " fill="#0A66D1" transform="translate(683,657)"/>
<path d="M0 0 C3.465 1.485 3.465 1.485 7 3 C6.34 3.66 5.68 4.32 5 5 C2.525 4.01 2.525 4.01 0 3 C0 2.01 0 1.02 0 0 Z " fill="#188BEB" transform="translate(812,349)"/>
</svg>
